<svg width="100" height="35" viewBox="0 0 100 35" fill="none" xmlns="http://www.w3.org/2000/svg">
<path d="M17.5345 34.7553C27.2174 34.7553 35.067 26.9751 35.067 17.3777C35.067 7.78024 27.2174 0 17.5345 0C7.85153 0 0.00195312 7.78024 0.00195312 17.3777C0.00195312 26.9751 7.85153 34.7553 17.5345 34.7553Z" fill="#F06040"/>
<path d="M27.7615 3.26411C24.9452 1.25889 21.5923 0.126448 18.1266 0.00998315C14.661 -0.106482 11.2384 0.798261 8.29158 2.6098C5.34475 4.42134 3.00607 7.05832 1.57127 10.1873C0.136473 13.3162 -0.329994 16.7966 0.230855 20.1883C0.791705 23.58 2.35468 26.7307 4.72214 29.242C7.08959 31.7533 10.1552 33.5123 13.5313 34.2967C16.9074 35.0811 20.4423 34.8556 23.6891 33.6487C26.9359 32.4418 29.7487 30.3077 31.7718 27.5164C33.1151 25.6629 34.0769 23.5654 34.6024 21.3436C35.1278 19.1217 35.2066 16.819 34.8342 14.567C34.4618 12.315 33.6456 10.1577 32.432 8.21833C31.2185 6.27898 29.6314 4.59553 27.7615 3.26411V3.26411Z" fill="#F1603F"/>
<path d="M3.05176 27.18C3.05176 27.18 14.6374 23.4181 35.0566 16.8181C35.0566 16.8181 36.1751 27.6265 24.8716 33.2643C24.8716 33.2643 19.2976 35.9125 13.1824 34.2137C13.1824 34.2137 7.09314 33.0744 3.05176 27.18Z" fill="#2B286C"/>
<path d="M45.6138 8.6958H51.6933C52.7783 8.6958 53.7597 8.87543 54.6373 9.23468C55.5308 9.59394 56.2888 10.1328 56.9111 10.8513C57.5494 11.5535 58.036 12.4435 58.3711 13.5213C58.7222 14.5827 58.8977 15.8238 58.8977 17.2445C58.8977 18.6652 58.7222 19.9144 58.3711 20.9922C58.036 22.0536 57.5494 22.9436 56.9111 23.6621C56.2888 24.3643 55.5308 24.895 54.6373 25.2543C53.7597 25.6135 52.7783 25.7932 51.6933 25.7932H45.6138V8.6958ZM51.6933 22.9273C52.8741 22.9273 53.8075 22.5762 54.4937 21.874C55.1958 21.1555 55.5468 20.0614 55.5468 18.5917V15.8973C55.5468 14.4276 55.1958 13.3416 54.4937 12.6395C53.8075 11.9209 52.8741 11.5617 51.6933 11.5617H48.7732V22.9273H51.6933Z" fill="#2D2D2D"/>
<path d="M69.1527 23.6621H69.0331C68.9214 23.9887 68.7698 24.299 68.5783 24.5929C68.4028 24.8705 68.1714 25.1236 67.8842 25.3523C67.6129 25.5809 67.2778 25.7605 66.8789 25.8911C66.4959 26.0218 66.0492 26.0871 65.5385 26.0871C64.2461 26.0871 63.2567 25.6544 62.5706 24.7889C61.8845 23.9234 61.5414 22.6905 61.5414 21.0902V13.0069H64.6051V20.7717C64.6051 21.6535 64.7726 22.3312 65.1077 22.8048C65.4428 23.262 65.9774 23.4907 66.7114 23.4907C67.0145 23.4907 67.3097 23.4498 67.597 23.3682C67.9001 23.2865 68.1634 23.1641 68.3868 23.0008C68.6102 22.8211 68.7937 22.6088 68.9373 22.3639C69.0809 22.1026 69.1527 21.8005 69.1527 21.4576V13.0069H72.2164V25.7932H69.1527V23.6621Z" fill="#2D2D2D"/>
<path d="M75.5168 25.7932V13.0069H78.5805V15.1379H78.7002C78.9555 14.4521 79.3544 13.8805 79.8969 13.4233C80.4554 12.9497 81.2213 12.7129 82.1947 12.7129C83.4872 12.7129 84.4765 13.1457 85.1626 14.0112C85.8488 14.8767 86.1918 16.1096 86.1918 17.7099V25.7932H83.1282V18.0283C83.1282 17.1138 82.9686 16.428 82.6495 15.9708C82.3303 15.5135 81.8038 15.2849 81.0698 15.2849C80.7506 15.2849 80.4395 15.3339 80.1363 15.4319C79.8491 15.5135 79.5858 15.6442 79.3464 15.8238C79.123 15.9871 78.9395 16.1994 78.7959 16.4607C78.6523 16.7056 78.5805 16.9995 78.5805 17.3425V25.7932H75.5168Z" fill="#2D2D2D"/>
<path d="M94.3989 26.0871C93.4735 26.0871 92.6437 25.932 91.9097 25.6217C91.1916 25.2951 90.5773 24.846 90.0667 24.2745C89.572 23.6866 89.1891 22.9844 88.9178 22.1679C88.6466 21.3351 88.5109 20.4043 88.5109 19.3755C88.5109 18.3631 88.6386 17.4486 88.8939 16.6321C89.1651 15.8156 89.5481 15.1216 90.0428 14.5501C90.5374 13.9622 91.1438 13.5131 91.8618 13.2028C92.5799 12.8762 93.3937 12.7129 94.3032 12.7129C95.2766 12.7129 96.1223 12.8844 96.8403 13.2273C97.5584 13.5703 98.1488 14.0357 98.6115 14.6235C99.0742 15.2114 99.4173 15.8973 99.6407 16.6811C99.8801 17.4486 99.9997 18.2733 99.9997 19.1551V20.1839H91.6943V20.5023C91.6943 21.4331 91.9496 22.1843 92.4602 22.7558C92.9708 23.311 93.7288 23.5886 94.734 23.5886C95.4999 23.5886 96.1223 23.4253 96.601 23.0987C97.0956 22.7721 97.5344 22.3557 97.9174 21.8495L99.5689 23.7356C99.0583 24.4705 98.3562 25.0502 97.4626 25.4747C96.585 25.883 95.5638 26.0871 94.3989 26.0871ZM94.3511 15.0644C93.5373 15.0644 92.891 15.3421 92.4123 15.8973C91.9336 16.4525 91.6943 17.171 91.6943 18.0528V18.2488H96.8164V18.0283C96.8164 17.1465 96.601 16.4362 96.1701 15.8973C95.7553 15.3421 95.1489 15.0644 94.3511 15.0644Z" fill="#2D2D2D"/>
</svg>
